<?xml version="1.0" encoding="utf-8"?>
<!-- Generator: Adobe Illustrator 24.1.0, SVG Export Plug-In . SVG Version: 6.00 Build 0)  -->
<svg version="1.1" id="Layer_1" xmlns="http://www.w3.org/2000/svg" xmlns:xlink="http://www.w3.org/1999/xlink" x="0px" y="0px"
	 viewBox="0 0 39 36" style="enable-background:new 0 0 39 36;" xml:space="preserve">
<style type="text/css">
	.st0{fill-rule:evenodd;clip-rule:evenodd;fill:#FE2B09;}
</style>
<g>
	<path class="st0" d="M27.9,4c-2.5-0.1-5,0.6-7,2.1c0.2-1.5,0.9-2.8,2-3.8c0.5-0.5,0.5-1.4,0-1.9s-1.4-0.5-1.9,0
		C19.2,1.9,18.2,4,18,6.3c-2-1.5-4.4-2.3-6.9-2.3C4.8,4,0,10.8,0,19.7c0,8.8,5.1,15.7,11.6,15.7c1.9-0.2,3.8-0.6,5.6-1.2
		c0.8-0.2,1.9-0.5,2.3-0.6c0.5,0.1,1.5,0.4,2.3,0.6c1.8,0.6,3.7,1,5.6,1.2c6.5,0,11.6-6.9,11.6-15.7C39,10.8,34.2,4,27.9,4z
		 M27.4,32.6c-1.8,0-6.8-1.8-7.9-1.8s-6.1,1.8-7.9,1.8c-4.9,0-8.8-5.8-8.8-12.9S6.3,6.8,11.1,6.8c5.1,0,6.5,3.7,8.4,3.7
		s2.3-3.7,8.4-3.7c4.9,0,8.4,5.8,8.4,12.9S32.3,32.6,27.4,32.6z"/>
	<path class="st0" d="M26.7,10.1c-0.8,0-1.4,0.6-1.4,1.4s0.6,1.4,1.4,1.4c0.1,0,3.2,0.1,3.2,5.1c0,0.8,0.6,1.4,1.4,1.4
		s1.4-0.6,1.4-1.4C32.7,11.7,28.8,10.1,26.7,10.1z"/>
</g>
</svg>
