<?xml version="1.0" encoding="utf-8"?>
<!-- Generator: Adobe Illustrator 24.1.0, SVG Export Plug-In . SVG Version: 6.00 Build 0)  -->
<svg version="1.1" id="Layer_1" xmlns="http://www.w3.org/2000/svg" xmlns:xlink="http://www.w3.org/1999/xlink" x="0px" y="0px"
	 viewBox="0 0 42 38" style="enable-background:new 0 0 42 38;" xml:space="preserve">
<style type="text/css">
	.st0{fill-rule:evenodd;clip-rule:evenodd;fill:#FE310E;}
</style>
<g>
	<path class="st0" d="M39.8,34.5H1.6c-0.8,0-1.4,0.7-1.4,1.5s0.6,1.5,1.4,1.5h38.2c0.8,0,1.4-0.7,1.4-1.5S40.6,34.5,39.8,34.5z"/>
	<path class="st0" d="M18.8,32.5h3.8c1.6,0,2.9-1.3,2.9-2.9V18.9c0-1.6-1.3-2.9-2.9-2.9h-3.8c-1.6,0-2.9,1.3-2.9,2.9v10.7
		c0,0.8,0.3,1.5,0.8,2.1C17.3,32.2,18.1,32.5,18.8,32.5z M18.8,18.9h3.8v10.7h-3.8V18.9z"/>
	<path class="st0" d="M30.3,32.5h3.8c1.6,0,2.9-1.3,2.9-2.9V12.1c0-1.6-1.3-2.9-2.9-2.9h-3.8c-1.6,0-2.9,1.3-2.9,2.9v17.5
		C27.4,31.2,28.7,32.5,30.3,32.5z M30.3,12.1h3.8v17.5h-3.8V12.1z"/>
	<path class="st0" d="M7.4,32.5h3.8c1.6,0,2.9-1.3,2.9-2.9V3.3c0-1.6-1.3-2.9-2.9-2.9H7.4c-1.6,0-2.9,1.3-2.9,2.9v26.3
		C4.5,31.2,5.8,32.5,7.4,32.5z M7.4,3.3h3.8v26.3H7.4V3.3z"/>
</g>
</svg>
