<?xml version="1.0" encoding="utf-8"?>
<!-- Generator: Adobe Illustrator 24.1.0, SVG Export Plug-In . SVG Version: 6.00 Build 0)  -->
<svg version="1.1" id="Layer_1" xmlns="http://www.w3.org/2000/svg" xmlns:xlink="http://www.w3.org/1999/xlink" x="0px" y="0px"
	 viewBox="0 0 34 34" style="enable-background:new 0 0 34 34;" xml:space="preserve">
<style type="text/css">
	.st0{fill-rule:evenodd;clip-rule:evenodd;fill:#FE2C09;}
</style>
<g>
	<path class="st0" d="M5,17.2c-0.7,0-1.3-0.4-1.5-1s-0.1-1.3,0.4-1.8c0.7-0.6,1.7-0.6,2.4,0c0.3,0.3,0.5,0.7,0.5,1.2
		c0,0.8,0.6,1.4,1.4,1.4c0.8,0,1.4-0.6,1.4-1.4c0-2-1.3-3.7-3.1-4.3l-0.1-0.9c0-0.8-0.6-1.4-1.4-1.4s-1.4,0.6-1.4,1.4v1
		c-2.1,0.7-3.3,2.8-2.9,5s2.2,3.7,4.4,3.7c0.8,0,1.6,0.5,1.9,1.3S7,23,6.4,23.6s-1.5,0.7-2.2,0.3S3,22.7,3,21.9
		c0.1-0.8-0.5-1.5-1.3-1.6s-1.5,0.5-1.6,1.3c-0.2,2.2,1.1,4.4,3.3,5.1v1.6c0,0.8,0.6,1.4,1.4,1.4s1.4-0.6,1.4-1.4v-1.6
		c0.8-0.2,1.5-0.6,2.1-1.2c1.4-1.4,1.8-3.5,1.1-5.3S7,17.2,5,17.2L5,17.2z"/>
	<path class="st0" d="M32.7,10.3C33.5,9.4,34,8.2,34,7c0-3.8-4.4-6.6-10.4-6.6S13.2,3.2,13.2,7c0,1.2,0.4,2.4,1.2,3.3
		c-0.8,0.9-1.2,2.1-1.2,3.3c0,1.2,0.4,2.4,1.2,3.3c-0.8,0.9-1.2,2.1-1.2,3.3c0,1.2,0.4,2.4,1.2,3.3c-0.8,0.9-1.2,2.1-1.2,3.3
		c0,3.8,4.1,6.6,10.2,6.6S34,30.7,34,26.8c0-1.2-0.5-2.4-1.3-3.3c0.8-0.9,1.3-2.1,1.3-3.3c0-1.2-0.5-2.4-1.3-3.3
		c0.8-0.9,1.3-2.1,1.3-3.3C34,12.4,33.5,11.2,32.7,10.3z M31.1,20.2c0,2.1-3.6,3.8-7.8,3.8S16,22.3,16,20.2c0-0.6,0.2-1.1,0.6-1.5
		c2.1,1,4.4,1.6,6.7,1.5c2.5,0.1,4.9-0.5,7.1-1.6C30.9,19,31.1,19.6,31.1,20.2z M23.3,13.6c2.5,0.1,4.9-0.5,7.1-1.6
		c0.4,0.4,0.7,1,0.7,1.6c0,2.1-3.6,3.8-7.8,3.8S16,15.7,16,13.6c0-0.6,0.2-1.1,0.6-1.5C18.7,13.1,21,13.7,23.3,13.6z M23.6,3.2
		c4.2,0,7.6,1.7,7.6,3.8s-3.6,3.8-7.8,3.8S16,9.1,16,7S19.4,3.2,23.6,3.2z M23.3,30.6c-4.2,0-7.3-1.7-7.3-3.8c0-0.6,0.2-1.1,0.6-1.5
		c2.1,1,4.4,1.6,6.7,1.5c2.5,0.1,4.9-0.5,7.1-1.6c0.4,0.4,0.7,1,0.7,1.6C31.1,28.9,27.5,30.6,23.3,30.6z"/>
</g>
</svg>
