<?xml version="1.0" encoding="utf-8"?>
<!-- Generator: Adobe Illustrator 24.1.0, SVG Export Plug-In . SVG Version: 6.00 Build 0)  -->
<svg version="1.1" id="Layer_1" xmlns="http://www.w3.org/2000/svg" xmlns:xlink="http://www.w3.org/1999/xlink" x="0px" y="0px"
	 viewBox="0 0 40 40" style="enable-background:new 0 0 40 40;" xml:space="preserve">
<style type="text/css">
	.st0{fill-rule:evenodd;clip-rule:evenodd;fill:#FE3511;}
</style>
<g>
	<path class="st0" d="M20,0C9,0,0,9,0,20s9,20,20,20s20-9,20-20S31,0,20,0z M20,37.3c-9.5,0-17.3-7.7-17.3-17.3S10.5,2.7,20,2.7
		S37.3,10.5,37.3,20S29.5,37.3,20,37.3z"/>
	<path class="st0" d="M20.5,19v-6c0.5,0.2,1,0.5,1.4,0.8c0.4,0.4,0.5,0.7,0.5,1.7c0,0.6,0.5,1.1,1.1,1.1s1.1-0.5,1.1-1.1
		c0.2-1.2-0.3-2.5-1.1-3.3c-0.8-0.8-1.8-1.4-3-1.6v-0.5c0-0.6-0.5-1.1-1.1-1.1s-1.1,0.5-1.1,1.1v0.6c-2.5,0.6-4.3,2.9-4.2,5.4
		c0,2.8,2.3,4.2,4.2,4.7v6.9c-1.5-0.6-2.4-2.1-2.3-3.7c0-0.6-0.5-1.1-1.1-1.1s-1.1,0.5-1.1,1.1c0,3,2,5.6,4.6,6v0.4
		c0,0.6,0.5,1.1,1.1,1.1s1.1-0.5,1.1-1.1v-0.5c2.3-0.4,5-1.9,5-5.5C25.5,21.4,22.4,19.5,20.5,19z M16.3,16.3c-0.1-1.3,0.7-2.5,1.9-3
		v5.3C17.1,18.3,16.4,17.4,16.3,16.3z M20.5,27.8v-6.4c1.1,0.4,2.7,1.5,2.7,3.2C23.2,26.2,22.1,27.6,20.5,27.8z"/>
</g>
</svg>
