<?xml version="1.0" encoding="utf-8"?>
<!-- Generator: Adobe Illustrator 24.1.0, SVG Export Plug-In . SVG Version: 6.00 Build 0)  -->
<svg version="1.1" id="Layer_1" xmlns="http://www.w3.org/2000/svg" xmlns:xlink="http://www.w3.org/1999/xlink" x="0px" y="0px"
	 viewBox="0 0 40 40" style="enable-background:new 0 0 40 40;" xml:space="preserve">
<style type="text/css">
	.st0{fill:#FE4C24;}
</style>
<g>
	<path class="st0" d="M25.5,14.8c2.1,2.1,3.1,4.7,3.1,7.7s-1,5.5-3.1,7.6l-4.8,4.8C18.6,37,16,38.1,13,38.1S7.5,37,5.4,34.9
		c-2.1-2.1-3.2-4.7-3.2-7.7s1-5.5,3.1-7.6L8,16.9c0.3-0.3,0.7-0.4,1.2-0.2c0.5,0.2,0.7,0.5,0.7,1c0,1.3,0.3,2.5,0.7,3.8
		c0.1,0.4,0,0.8-0.3,1.1l-0.9,1c-1,1-1.5,2.2-1.5,3.6c0,1.4,0.5,2.6,1.5,3.6c1,1,2.2,1.6,3.6,1.6s2.6-0.5,3.6-1.5l4.8-4.8
		c1-1,1.5-2.2,1.5-3.6c0-1.4-0.5-2.6-1.5-3.6c-0.2-0.2-0.5-0.5-0.7-0.6c-0.3-0.2-0.5-0.5-0.5-0.9c0-0.9,0.2-1.6,0.8-2.1l1.6-1.5
		c0.4-0.5,0.9-0.5,1.4-0.1C24.5,14,25,14.4,25.5,14.8z M27.8,1.6c3,0,5.5,1.1,7.7,3.2c2.1,2.1,3.2,4.7,3.2,7.7s-1,5.5-3.1,7.6
		l-2.7,2.7c-0.3,0.3-0.7,0.4-1.2,0.2c-0.5-0.2-0.7-0.5-0.7-1c0-1.3-0.3-2.5-0.7-3.8c-0.1-0.4,0-0.8,0.3-1.1l0.9-1
		c1-1,1.5-2.2,1.5-3.6s-0.5-2.6-1.5-3.6c-1-1-2.2-1.6-3.6-1.6c-1.4,0-2.6,0.5-3.6,1.5l-4.8,4.8c-1,1-1.5,2.2-1.5,3.6
		c0,1.4,0.5,2.6,1.5,3.6c0.2,0.2,0.5,0.5,0.7,0.6c0.3,0.2,0.5,0.5,0.5,0.9c0,0.9-0.2,1.6-0.8,2.1L18.3,26c-0.4,0.5-0.9,0.5-1.4,0.1
		c-0.5-0.4-1-0.8-1.5-1.2c-2.1-2.1-3.1-4.7-3.1-7.7s1-5.5,3.1-7.6l4.8-4.8C22.3,2.7,24.8,1.6,27.8,1.6z"/>
</g>
</svg>
