<?xml version="1.0" encoding="utf-8"?>
<!-- Generator: Adobe Illustrator 24.1.0, SVG Export Plug-In . SVG Version: 6.00 Build 0)  -->
<svg version="1.1" id="Layer_1" xmlns="http://www.w3.org/2000/svg" xmlns:xlink="http://www.w3.org/1999/xlink" x="0px" y="0px"
	 viewBox="0 0 24 40" style="enable-background:new 0 0 24 40;" xml:space="preserve">
<style type="text/css">
	.st0{fill-rule:evenodd;clip-rule:evenodd;fill:#FE2C09;}
</style>
<g>
	<path class="st0" d="M24,6.4C24,2.8,21.1,0,17.5,0H6.5C2.9,0,0,2.8,0,6.4v27.3C0,37.2,2.9,40,6.5,40h11.1c3.6,0,6.5-2.8,6.5-6.4
		V6.4z M2.8,8.2h18.5V30H2.8V8.2z M6.5,2.7h11.1c1.7,0,3.1,1.1,3.6,2.7H2.9C3.3,3.9,4.8,2.7,6.5,2.7z M17.5,37.3H6.5
		c-2,0-3.7-1.6-3.7-3.6v-0.9h18.5v0.9C21.2,35.6,19.6,37.3,17.5,37.3z"/>
	<ellipse class="st0" cx="11.3" cy="35.4" rx="1.4" ry="1.4"/>
</g>
</svg>
