<?xml version="1.0" encoding="utf-8"?>
<!-- Generator: Adobe Illustrator 24.1.0, SVG Export Plug-In . SVG Version: 6.00 Build 0)  -->
<svg version="1.1" id="Layer_1" xmlns="http://www.w3.org/2000/svg" xmlns:xlink="http://www.w3.org/1999/xlink" x="0px" y="0px"
	 viewBox="0 0 46 26" style="enable-background:new 0 0 46 26;" xml:space="preserve">
<style type="text/css">
	.st0{fill-rule:evenodd;clip-rule:evenodd;fill:#FE431D;}
</style>
<g>
	<path class="st0" d="M43,0H0v26h46V0H43z M43,23H3V3h40V23z"/>
	<path class="st0" d="M32.8,7c3.4,0,6.2,2.7,6.2,6s-2.8,6-6.2,6H13.2C9.8,19,7,16.3,7,13s2.8-6,6.2-6H32.8z M32.8,9.6H13.2
		c-2,0-3.6,1.5-3.6,3.4s1.6,3.4,3.6,3.4h19.6c2,0,3.6-1.5,3.6-3.4S34.7,9.6,32.8,9.6z"/>
</g>
</svg>
