<?xml version="1.0" encoding="utf-8"?>
<!-- Generator: Adobe Illustrator 24.1.0, SVG Export Plug-In . SVG Version: 6.00 Build 0)  -->
<svg version="1.1" id="Layer_1" xmlns="http://www.w3.org/2000/svg" xmlns:xlink="http://www.w3.org/1999/xlink" x="0px" y="0px"
	 viewBox="0 0 40 40" style="enable-background:new 0 0 40 40;" xml:space="preserve">
<style type="text/css">
	.st0{fill-rule:evenodd;clip-rule:evenodd;fill:#FE2C09;}
</style>
<g>
	<circle class="st0" cx="13.1" cy="14.6" r="1.8"/>
	<circle class="st0" cx="27.3" cy="14.6" r="1.8"/>
	<path class="st0" d="M20.2,0.4C9.4,0.4,0.6,9.1,0.6,19.9s8.8,19.6,19.6,19.6s19.6-8.8,19.6-19.6S31,0.4,20.2,0.4z M20.2,36.8
		c-9.3,0-16.9-7.6-16.9-16.9S10.9,3,20.2,3s16.9,7.6,16.9,16.9S29.5,36.8,20.2,36.8z"/>
	<path class="st0" d="M20.2,31.7c-4.5-0.1-8.6-2.6-10.9-6.4c-0.4-0.6-0.2-1.4,0.4-1.8s1.4-0.2,1.8,0.4c1.7,3.2,5,5.2,8.6,5.2
		s6.9-2,8.6-5.2c0.3-0.4,0.7-0.6,1.2-0.6s0.9,0.3,1.1,0.7s0.2,0.9-0.1,1.3C28.8,29.1,24.7,31.5,20.2,31.7z"/>
</g>
</svg>
