<?xml version="1.0" encoding="utf-8"?>
<!-- Generator: Adobe Illustrator 24.1.0, SVG Export Plug-In . SVG Version: 6.00 Build 0)  -->
<svg version="1.1" id="Layer_1" xmlns="http://www.w3.org/2000/svg" xmlns:xlink="http://www.w3.org/1999/xlink" x="0px" y="0px"
	 viewBox="0 0 40 40" style="enable-background:new 0 0 40 40;" xml:space="preserve">
<style type="text/css">
	.st0{fill-rule:evenodd;clip-rule:evenodd;fill:#FE3B15;}
</style>
<path class="st0" d="M20,0C9,0,0,9,0,20s9,20,20,20s20-9,20-20S31,0,20,0z M2.7,20c0-7.6,4.9-14.2,12.1-16.5S29.9,4,34.2,10.2
	s4,14.5-0.7,20.5c-2.1-3.1-5.1-5.5-8.6-6.7c1.5-1.6,2.4-3.8,2.3-6c0-4.5-3.3-8.2-7.3-8.2s-7.3,3.6-7.3,8.2c0,2.3,0.9,4.5,2.5,6.2
	c-3.5,1.3-6.5,3.7-8.5,7C4.2,28,2.7,24.1,2.7,20z M20.5,23.2c-0.5,0-1,0-1.5,0.1c-2.2-0.8-3.6-3-3.5-5.3c0-3,2-5.5,4.5-5.5
	s4.5,2.4,4.5,5.5c0.1,2.3-1.2,4.4-3.3,5.3C21,23.2,20.7,23.2,20.5,23.2z M8.8,33.2c2-3.9,5.7-6.5,10-7.1c0.9,0.2,1.8,0.2,2.7-0.1
	c4.2,0.6,8,3.1,10.2,6.7C25.2,38.7,15.4,38.9,8.8,33.2L8.8,33.2z"/>
</svg>
