<svg xmlns="http://www.w3.org/2000/svg" id="prefix__Component_12_1" width="62.384" height="46.5" data-name="Component 12 – 1" viewBox="0 0 62.384 46.5">
    <defs>
        <style>
            .prefix__cls-1{fill:#fe4308}
        </style>
    </defs>
    <path id="prefix__Path_8" d="M34.3 13.8h24.3c2 0 3.8.3 5.2 1.9a6.53 6.53 0 0 1-.7 9.3c-7.9 5.9-15.9 11.8-23.9 17.7A25.293 25.293 0 0 1 37 44a5.022 5.022 0 0 1-5.4 0c-1.2-.7-2.3-1.4-3.4-2.1C20.4 36.1 12.7 30.4 5 24.7c-1.9-1.4-2.4-3.9-1.6-6.7a5.329 5.329 0 0 1 4.7-4 17.7 17.7 0 0 1 2.3-.1c7.9-.1 15.9-.1 23.9-.1z" class="prefix__cls-1" data-name="Path 8" transform="translate(-3.034 -13.8)"/>
    <path id="prefix__Path_9" d="M3.4 28.8c.7.5 1.1.7 1.5 1C11.9 35 19 40.2 26 45.4a15.3 15.3 0 0 0 7 3.4c3.2.5 5.9-.8 8.4-2.6 7.3-5.3 14.6-10.8 22-16.2.5-.3 1.1-.5 1.6-.8a10.462 10.462 0 0 1 .4 1.7v22.7c0 4.5-2.3 6.7-6.8 6.7H10c-4 0-6.9-2.3-6.8-6.7.2-7.6 0-15.1.1-22.7a8.131 8.131 0 0 1 .1-2.1z" class="prefix__cls-1" data-name="Path 9" transform="translate(-3.034 -13.8)"/>
</svg>
