<svg xmlns="http://www.w3.org/2000/svg" id="prefix__Component_11_1" width="48.643" height="48.634" data-name="Component 11 – 1" viewBox="0 0 48.643 48.634">
    <defs>
        <style>
            .prefix__cls-1{fill:#fe4308}
        </style>
    </defs>
    <path id="prefix__Path_6" d="M19.9 25.956a13.942 13.942 0 0 1 3.808-9.932c2.39-2.539 4.779-5 7.318-7.318a13.689 13.689 0 0 1 14.413-2.913 13.763 13.763 0 0 1 9.409 11.127 13.99 13.99 0 0 1-3.734 12.322 38.1 38.1 0 0 1-3.51 3.435 2.675 2.675 0 0 1-1.718.6c-.448-.075-.821-.9-.9-1.419-.373-1.568-.6-3.211-.971-4.779a1.811 1.811 0 0 1 .821-1.942 8.467 8.467 0 0 0 2.763-4.7 6.86 6.86 0 0 0-3.211-6.945 6.6 6.6 0 0 0-7.766.373 97.105 97.105 0 0 0-7.836 7.835 6.62 6.62 0 0 0 1.045 9.409c1.568 1.195 1.269 2.763.373 3.958a17.511 17.511 0 0 1-2.315 2.39c-.747.672-1.568.373-2.315-.224A14.434 14.434 0 0 1 19.9 25.956z" class="prefix__cls-1" data-name="Path 6" transform="translate(-6.441 -4.888)"/>
    <path id="prefix__Path_7" d="M37.067 37.31a14.908 14.908 0 0 1-4.257 11.127c-2.091 2.091-4.107 4.182-6.273 6.273-8.289 7.841-21.581 4.182-24.195-6.8a13.656 13.656 0 0 1 3.211-12.915 39.6 39.6 0 0 1 3.958-3.958 1.942 1.942 0 0 1 1.643-.448c.448.149.821.9.971 1.419.373 1.494.523 2.987.821 4.481a2.141 2.141 0 0 1-.523 2.166 14.863 14.863 0 0 0-2.166 2.688A6.8 6.8 0 0 0 11.9 49.93a6.687 6.687 0 0 0 8.737 0 96.664 96.664 0 0 0 7.318-7.318 6.749 6.749 0 0 0-.747-9.708c-1.419-1.269-1.568-2.614-.3-4.107.6-.672 1.195-1.269 1.867-1.942.971-.9 1.568-.971 2.614-.149a13.744 13.744 0 0 1 5.678 10.604z" class="prefix__cls-1" data-name="Path 7" transform="translate(-1.877 -10.268)"/>
</svg>
