<svg xmlns="http://www.w3.org/2000/svg" id="prefix__Component_4_1" width="219" height="224" data-name="Component 4 – 1" viewBox="0 0 219 224">
    <path id="prefix__Polygon_3" d="M157.058 0a19 19 0 0 1 16.433 9.464l44.974 77.5a19 19 0 0 1 0 19.073l-44.974 77.5A19 19 0 0 1 157.058 193H66.942a19 19 0 0 1-16.433-9.464l-44.974-77.5a19 19 0 0 1 0-19.073l44.974-77.5A19 19 0 0 1 66.942 0z" data-name="Polygon 3" transform="rotate(90 109.5 109.5)" style="fill:#f2f2f2"/>
    <path id="prefix__Polygon_4" d="M46.013 0a10 10 0 0 1 8.632 4.952l11.4 19.5a10 10 0 0 1 0 10.1l-11.4 19.5A10 10 0 0 1 46.013 59H22.987a10 10 0 0 1-8.632-4.952l-11.4-19.5a10 10 0 0 1 0-10.1l11.4-19.5A10 10 0 0 1 22.987 0z" data-name="Polygon 4" transform="rotate(90 18.25 40.75)" style="fill:#ffe02e"/>
    <text id="prefix___4" data-name="4" transform="translate(30 67.5)" style="fill:#222;font-size:30px;font-family:Montserrat-Bold,Montserrat;font-weight:700;letter-spacing:.018em">
        <tspan x="-10.335" y="0">4</tspan>
    </text>
    <path id="prefix__Path_4" d="M56.8 27.7a3.073 3.073 0 0 1 3.1 3.1v7.8a1.366 1.366 0 0 1-.4 1.1 1.5 1.5 0 0 1-1.1.4H11.5a1.366 1.366 0 0 1-1.1-.4 1.5 1.5 0 0 1-.4-1.1v-7.8a3.073 3.073 0 0 1 3.1-3.1h4.3a7.561 7.561 0 0 1-1-3.9 8.383 8.383 0 0 1 2.5-6.1 8.224 8.224 0 0 1 6.1-2.5 8.454 8.454 0 0 1 5.2 1.6 21.9 21.9 0 0 1 4.9 5.1 26.876 26.876 0 0 1 4.9-5.1 9.148 9.148 0 0 1 5.2-1.6 8.383 8.383 0 0 1 6.1 2.5 8.224 8.224 0 0 1 2.5 6.1 8.088 8.088 0 0 1-1 3.9h4zM13 55.8V43.3h18.8v15.6H16.2A3.1 3.1 0 0 1 14 58a2.836 2.836 0 0 1-1-2.2zm11.9-28.1h8.4a37.77 37.77 0 0 0-5-6.5 5.01 5.01 0 0 0-3.4-1.3 4.552 4.552 0 0 0-2 .5 3.76 3.76 0 0 0-1.4 1.4 3.323 3.323 0 0 0-.5 2 3.764 3.764 0 0 0 3.9 3.9zm20.2 0a4.106 4.106 0 0 0 2.8-1.1 3.928 3.928 0 0 0 1.1-2.8 4.106 4.106 0 0 0-1.1-2.8 3.928 3.928 0 0 0-2.8-1.1 5.618 5.618 0 0 0-2 .3 6.679 6.679 0 0 0-2.4 2.1 63.481 63.481 0 0 0-4 5.4zM38 58.9V43.3h18.8v12.5a3.073 3.073 0 0 1-3.1 3.1z" data-name="Path 4" transform="translate(87 74.8)" style="fill:#fe4308"/>
</svg>
