<svg xmlns="http://www.w3.org/2000/svg" xmlns:xlink="http://www.w3.org/1999/xlink" width="160" height="161" viewBox="0 0 160 161">
    <defs>
        <path id="zs57xklzna" d="M0 0.17L159.83 0.17 159.83 160 0 160z"/>
    </defs>
    <g fill="none" fill-rule="evenodd">
        <g transform="translate(0 .83)">
            <mask id="ngcj3iijlb" fill="#fff">
                <use xlink:href="#zs57xklzna"/>
            </mask>
            <path fill="#FE4308" d="M79.916 0C35.779 0 0 35.779 0 79.915s35.779 79.915 79.916 79.915c44.136 0 79.915-35.779 79.915-79.915S124.052 0 79.916 0z" mask="url(#ngcj3iijlb)" opacity=".2"/>
        </g>
        <path fill="#FE4308" d="M87.329 90.28c-7.812.057-15.668 6.711-16.374 16.953 0 1.807 1.014 1.975 1.559 2.921.707-2.468 3.198-9.539 9.217-12.66 0 0-7.926 11.171-8.257 14.04.13.15.267.296.415.43 1.8 1.64 3.67.132 5.45-.765 6.593-3.324 9.829-9.165 11.9-15.839 1.037-3.337-.324-5.105-3.91-5.08m-6.96 29.001c-4.08 0-8.162-.077-12.24.032-1.987.053-2.611-.716-2.578-2.636.088-5.245.127-10.495-.041-15.736-.043-1.367-.583-2.98-1.45-4.02-9.106-10.919-18.355-21.719-27.48-32.623-1.244-1.487-2.405-3.254-2.931-5.085-.777-2.705 2.487-6.864 5.367-7.368 3.266-.572 5.995.171 8.22 2.86 6.31 7.621 12.74 15.144 19.096 22.73 2.38 2.84 2.37 2.872 5.304.584 5.019-3.917 11.935-4.092 17.385-.15 1.987 1.437 3.139 1.078 4.565-.633 6.176-7.409 12.59-14.626 18.594-22.17 3.744-4.706 10.624-4.965 13.657 1.521 1.342 2.87-.52 5.014-2.067 6.923-5.025 6.2-10.251 12.237-15.41 18.328-3.707 4.38-7.404 8.766-11.162 13.103-1.321 1.525-1.933 3.145-1.888 5.208.119 5.326-.102 10.663.098 15.985.1 2.63-.862 3.293-3.298 3.192-3.907-.164-7.826-.044-11.74-.045"/>
        <path fill="#FE4308" d="M94.325 56.664c.446 8.168-6.407 14.172-13.871 14.148-7.316-.023-14.062-5.473-13.943-14.396.103-7.798 6.173-13.746 13.935-13.92 6.947-.155 14.555 6.415 13.879 14.168"/>
    </g>
</svg>
