<svg xmlns="http://www.w3.org/2000/svg" width="113" height="76" viewBox="0 0 113 76">
    <path fill="#FE4308" d="M59.27 13.677C66.265 4.463 77.316-1.72 84.236.427c5.477 1.7 10.225 9.197 12.325 18.006l.438.156C107.16 22.273 113 28.307 113 37.61c0 .931-.058 1.867-.174 2.804-5.497 3.358-11.272 6.2-17.175 8.602l-.017.1-.641.166c-19.726 7.91-40.8 10.973-57.57 12.111C19.583 56.66 8.304 49.434 1.337 45.105l-.182-.54C.395 42.225 0 39.889 0 37.609 0 26.42 9.509 19.753 25.136 16.4l.214-.387c2.803-5.004 6.484-8.66 10.32-9.559 4.96-1.163 11.675 1.932 17.43 7.242 1.239-.018 2.493-.028 3.761-.028.81 0 1.613.004 2.41.01zm-.244 19.445C56.353 21.366 43.352 10.457 36.813 11.99c-6.54 1.533-13.514 17.125-10.842 28.88.582 2.558 1.408 4.823 2.432 6.79 6.783 2.318 16.074 4.602 26.1 5.033 1.69-1.868 2.916-3.658 3.29-4.181 2.033-4.022 2.627-9.261 1.233-15.39zm1.31-11.211l-.143.36c1.931 3.118 3.413 6.494 4.197 9.94.704 3.098 1.01 11.738-2.202 19.202.181.405.377.785.59 1.135 5.41-.457 10.89-1.579 15.82-2.884 2.47-1.488 4.375-2.773 4.823-2.977 3.742-2.45 6.835-6.686 8.647-12.701C95.542 22.448 89.655 6.4 83.237 4.408c-6.043-1.876-18.56 6.846-22.9 17.503zm-38.523 2.718c-5.993 2.525-9.827 5.851-9.827 9.884 0 3.95 3.677 7.221 9.459 9.727-.17-.607-.325-1.224-.468-1.851-1.288-5.666-.798-11.998.836-17.76zm75.896 3.703c-.025 3.088-.43 6.14-1.286 8.985-.609 2.02-1.356 3.926-2.222 5.701 4.3-2.316 6.924-5.168 6.924-8.505 0-2.295-1.241-4.361-3.416-6.181zM6.914 54.896c1.996 2.49 4.394 4.883 7.154 7.109 2.37.024 5.157.034 8.287-.009-5.53-2.042-10.683-4.42-15.44-7.1zm79.388 15.23C77.992 73.772 68.037 76 56.862 76c-15.562 0-28.913-4.485-38.76-11.04 4.168-.124 8.115-.266 11.873-.436 16.12 4.772 35.026 6.883 56.327 5.602zm9.256-5.074c8.131-5.49 13.742-12.492 16.137-19.688-23.034 11.262-39.79 15.934-65.078 18.108 13.126 2.48 29.228 3.513 48.94 1.58z"/>
</svg>
