<svg xmlns="http://www.w3.org/2000/svg" xmlns:xlink="http://www.w3.org/1999/xlink" width="160" height="160" viewBox="0 0 160 160">
    <defs>
        <path id="knx39e4s4a" d="M0 0.468L88.006 0.468 88.006 36 0 36z"/>
    </defs>
    <g fill="none" fill-rule="evenodd">
        <circle cx="80" cy="80" r="80" fill="#FE4308" fill-opacity=".2"/>
        <g>
            <g transform="translate(37 37) translate(0 38.572)">
                <mask id="5m52psk4hb" fill="#fff">
                    <use xlink:href="#knx39e4s4a"/>
                </mask>
                <path fill="#FE4308" d="M4 6.25h1.844V32H4V6.25zM81.563.469c-1.034.013-2.135.26-3.22.78l-18.718 9c-.888-2.05-3.032-3.443-5.437-3.374l-10.75.312c-2.636 0-4.643-.65-7.157-1.374-2.522-.727-5.51-1.5-9.656-1.5-3.414 0-8.03 1.012-11.781 2.28V4.25c0-.262-.056-.508-.156-.75-.101-.242-.222-.471-.407-.656-.185-.185-.414-.337-.656-.438-.242-.1-.52-.156-.781-.156H2c-.262 0-.508.056-.75.156s-.471.253-.656.438c-.185.185-.338.414-.438.656-.1.242-.156.488-.156.75V34c0 .262.056.54.156.782.1.24.253.47.438.656.185.185.414.337.656.437.242.1.488.125.75.125h10.844c.26 0 .539-.025.78-.125.243-.1.472-.252.657-.437.185-.186.306-.415.407-.656.1-.242.156-.52.156-.782v-2.531c13.167-2.33 21.013 1.634 32.875 1.625 2.454-.001 5.032-1.206 8.25-2.875 3.219-1.67 6.9-3.908 10.625-6.312 7.449-4.81 15.06-10.284 19.03-12.97 1.36-.923 2.18-2.376 2.345-3.812.165-1.436-.232-2.836-1.031-4-1.1-1.6-3.102-2.685-5.375-2.656z" mask="url(#5m52psk4hb)"/>
            </g>
            <path fill="#FE4308" d="M46.875.009c-.226.001-.443.018-.656.094-.213.076-.418.201-.594.343-.351.285-.593.684-.687 1.125-.453 2.109-1.83 6.332-1.938 10.282-.054 1.975.176 4.007 1.344 5.718.98 1.437 2.67 2.411 4.719 2.688.117.864-.111 1.626-.532 2.562-.046.102-.074.179-.125.282-.286-.439-.648-.836-1.031-1.219-1.808-1.807-4.282-2.551-6.625-2.188-.414.065-.828.267-1.125.563-.297.296-.496.711-.562 1.125-.378 2.362.358 4.859 2.156 6.656 1.027 1.028 2.275 1.704 3.593 2.031-.43 1.721-.405 3.377-.156 4.876H42.03c-2.397 0-4.344 1.958-4.344 4.343v2.375c0 .262.025.509.125.75.1.242.253.471.438.657.185.185.415.337.656.437.242.1.52.156.782.156h14.78c.262 0 .509-.056.75-.156.243-.1.472-.252.657-.437.186-.186.338-.415.438-.657.1-.241.156-.488.156-.75V39.29c0-2.385-1.978-4.343-4.375-4.343h-3.375c-.443-1.739-.437-3.623.687-5.688.743-1.367 1.923-2.906 2.78-4.813.559-1.238.939-2.707.845-4.281 1.802-.365 3.266-1.286 4.157-2.594 1.166-1.712 1.399-3.743 1.343-5.718-.111-3.95-1.485-8.174-1.937-10.282-.075-.351-.255-.674-.5-.937-.244-.263-.562-.462-.906-.563-.345-.099-.715-.09-1.063 0-.348.092-.654.275-.906.532l-3.375 3.406c-.33-.807-.681-1.702-1.094-2.75-.146-.372-.42-.682-.75-.906-.331-.224-.725-.345-1.125-.344" transform="translate(37 37)"/>
        </g>
    </g>
</svg>
