<svg xmlns="http://www.w3.org/2000/svg" id="prefix__social-03" width="28.314" height="52.868" viewBox="0 0 28.314 52.868">
    <path id="prefix__social-03-2" d="M40.581 11.617h-3.63c-4.083 0-5.9 1.815-5.9 5.823v5.823h9.074a19.148 19.148 0 0 1-.3 2.42c-.3 1.966-.681 4.008-.907 5.974-.076.832-.454.983-1.21.983h-5.143c-.454 0-.983.076-1.588.076v23.137h-7.032c-3.176 0-3.176 0-3.176-3.176v-18.6c0-1.21-.378-1.512-1.512-1.512-1.89.076-3.781 0-5.747 0-.832 0-1.21-.227-1.21-1.134q.113-3.516 0-7.032c0-.907.3-1.21 1.21-1.21 1.966.076 3.932-.076 5.823 0 1.134.076 1.437-.378 1.437-1.437-.076-2.42-.076-4.839.076-7.335C21.3 7.609 25.533 3.3 32.414 3a61.856 61.856 0 0 1 7.41.454c.3 0 .756.529.756.832.076 2.414.001 4.76.001 7.331z" data-name="social-03" transform="translate(-12.3 -2.984)" style="fill:#fe4308"/>
</svg>
