<svg xmlns="http://www.w3.org/2000/svg" id="prefix__social-04" width="53.3" height="44.038" viewBox="0 0 53.3 44.038">
    <path id="prefix__social-04-2" d="M10.8 31.3c1.9.5 3.4.9 4.9 1.2.1-.1.1-.2.2-.3-4.8-4-5.9-8.9-3.4-14.8 6.2 7.2 13.8 11.1 23 11.7a39.529 39.529 0 0 1 .3-5A11.032 11.032 0 0 1 53.7 18a2.3 2.3 0 0 0 2.6.5c1.7-.6 3.4-1.2 5.2-1.9a11.6 11.6 0 0 1-4.2 5.3c0 .1.1.3.1.4 1.8-.4 3.5-.9 5.3-1.3.1.1.2.1.2.2-1.4 1.4-2.8 2.9-4.3 4.2a2.61 2.61 0 0 0-1 2c-.3 11.7-5.1 21-14.9 27.4a29.5 29.5 0 0 1-17.6 4.6c-6.2-.2-11.9-1.9-15.5-4.4 2.5-.4 5.3-.6 8-1.2a19.025 19.025 0 0 0 7.7-4c-4.9-.6-8.4-2.8-10.3-7.4 1.6-.1 3-.2 4.5-.4 0-.1.1-.2.1-.3-3.2-1-5.9-2.7-7.3-5.7a21.694 21.694 0 0 1-1.5-4.7z" data-name="social-04" transform="translate(-9.6 -15.382)" style="fill:#fe4308"/>
</svg>
