
		<svg xmlns="http://www.w3.org/2000/svg" xmlns:xlink="http://www.w3.org/1999/xlink" version="1.1" width="3141.757879030796" height="1937.0619546130795">
			
			<g transform="scale(7.087893951539813) translate(10, 10)">
				<defs id="SvgjsDefs1166"/><g id="SvgjsG1167" featureKey="root" fill="#fff" transform="matrix(1,0,0,1,0,0)"/><g id="SvgjsG1168" featureKey="symbol1" fill="#fff" transform="matrix(4.673091383676609,0,0,4.673091383676609,114.98072584897017,-38.27416250896723)"><title xmlns="http://www.w3.org/2000/svg">Artboard 10 Copy 6</title><desc xmlns="http://www.w3.org/2000/svg">Created with Sketch.</desc><g xmlns="http://www.w3.org/2000/svg" stroke="none" stroke-width="1" fill="none" fill-rule="evenodd" xmlns:sketch="http://www.bohemiancoding.com/sketch/ns" sketch:type="MSPage"><g sketch:type="MSArtboardGroup" fill="#ffffff"><path d="M32.8877027,26.4836625 C34.7319786,25.744192 36.5366543,24.8698561 38.2541918,23.8364486 C38.2902604,23.5480015 38.3085327,23.2601199 38.3085327,22.9736945 C38.3085327,20.0702378 36.4309392,18.2013423 33.1716582,17.0724726 L33.1716582,17.0724726 C32.5153436,14.3617949 31.0317827,12.0549885 29.3204047,11.5317677 C27.1581095,10.8706877 23.7051366,12.7734894 21.5200087,15.6091446 C21.2710709,15.6070893 21.0200811,15.6060766 20.7670901,15.6060766 C20.3707334,15.6060766 19.9789668,15.6089004 19.5920092,15.6146253 C17.793796,13.9805614 15.6953653,13.0281785 14.1455613,13.385979 C12.9161664,13.6698071 11.7378951,14.8459791 10.8540496,16.4467761 L10.8540496,16.4467761 C5.97113418,17.4787794 3,19.529859 3,22.9736945 C3,23.7290431 3.14293294,24.5047421 3.41762104,25.2802472 L3.41762104,25.2802472 C5.59482617,26.6124307 9.11887675,28.8362292 14.6934712,30.2924432 C19.9334178,29.9422123 26.5183182,28.9996921 32.6819591,26.5655341 C32.8122463,26.5322186 32.8822895,26.5142481 32.8822895,26.5142481 L32.8877027,26.4836625 Z M27.5588613,26.6833626 C28.3310786,26.2253232 28.9261396,25.8299129 29.0660605,25.7673008 C30.2353254,25.0131616 31.2019843,23.7098145 31.7679443,21.8586426 C32.8534096,18.3082457 31.0138844,13.3696795 29.0085098,12.7565749 C27.099067,12.1727997 23.1213921,14.9241949 21.8081775,18.2536272 L21.8081775,18.2536272 C22.4117063,19.2130652 22.8747286,20.2519248 23.1196382,21.3127449 C23.3396802,22.2658515 23.4349234,24.9244759 22.4315658,27.2215243 C22.4881625,27.346018 22.5494346,27.4631854 22.6157946,27.5706863 C24.306396,27.4302584 26.0187409,27.084968 27.5588613,26.6833626 Z M11.8748449,26.0667096 C11.5549101,25.4612751 11.2968968,24.7644173 11.1151628,23.9772409 C10.2800048,20.3597745 12.459546,15.5615571 14.5028037,15.0898339 C16.5460614,14.6181107 20.60842,17.9752719 21.4435779,21.5927384 C21.8790281,23.4788804 21.6935504,25.0909415 21.058007,26.3286777 C20.941384,26.4898313 20.5584732,27.0405796 20.0300932,27.6154724 C16.8975382,27.482801 13.994343,26.7798274 11.8748449,26.0667096 Z M5.1604385,28.2932284 C5.78410962,29.059263 6.53340251,29.7960819 7.39588927,30.4808433 L7.39588927,30.4808433 C8.13649604,30.4884623 9.0072417,30.4915334 9.98506583,30.4783145 C8.25711989,29.8498521 6.64694752,29.1178889 5.1604385,28.2932284 L5.1604385,28.2932284 Z M29.9664668,32.9799004 C27.3700183,34.1020856 24.2592108,34.7876282 20.7670901,34.7876282 C15.9046689,34.7876282 11.7330598,33.4076108 8.6563497,31.3902709 L8.6563497,31.3902709 C9.95844884,31.3522376 11.1918087,31.3084492 12.3661172,31.2562712 C17.4030822,32.7246808 23.3106832,33.3740948 29.9664668,32.9799004 L29.9664668,32.9799004 Z M32.8584892,31.4185983 C35.3991941,29.7292482 37.1523478,27.5743949 37.9008627,25.3601632 C30.7033507,28.825546 25.4676108,30.2635355 17.566296,30.932515 C21.6676921,31.6955197 26.6990338,32.0132961 32.8584892,31.4185983 L32.8584892,31.4185983 Z M9.70074598,25.0140622 C7.89414972,24.2430105 6.74534856,23.2363591 6.74534856,22.0208829 C6.74534856,20.7797818 7.94309867,19.7564034 9.81587916,18.9792517 C9.30510023,20.7523968 9.15204785,22.7009272 9.55457996,24.4444854 C9.59912245,24.6374201 9.64789864,24.8273202 9.70074598,25.0140622 L9.70074598,25.0140622 Z M32.4344688,24.6381385 C33.7782019,23.925518 34.5980883,23.0477184 34.5980883,22.0208829 C34.5980883,21.314579 34.2101747,20.6787886 33.5306908,20.1187655 C33.5228032,21.0689312 33.3964659,22.0080918 33.1288002,22.8835868 C32.9386279,23.5056125 32.7051663,24.0917859 32.4344688,24.6381385 L32.4344688,24.6381385 Z" sketch:type="MSShapeGroup"/></g></g></g><g id="SvgjsG1169" featureKey="text1" fill="#fff" transform="matrix(4.219409486444344,0,0,4.219409486444344,-5.6882913334339325,107.64979025199939)"><path d="M1.5 22 c-0.18 -0.16 -0.2 -0.44 -0.06 -0.62 l0 0 c0.16 -0.2 0.44 -0.22 0.62 -0.06 l0 0 c1.04 0.84 2.78 1.82 4.6 1.8 l0 0 c1.22 0 2.32 -0.36 3.08 -0.92 l0 0 c0.78 -0.56 1.2 -1.3 1.2 -2.08 l0 0 c0 -0.8 -0.38 -1.4 -1.14 -1.92 l0 0 c-0.76 -0.5 -1.88 -0.88 -3.24 -1.14 l0 0 l-0.04 0 c-1.3 -0.24 -2.44 -0.6 -3.3 -1.18 l0 0 c-0.86 -0.56 -1.44 -1.4 -1.44 -2.44 l0 0 c0 -1.06 0.58 -1.98 1.46 -2.62 l0 0 c0.88 -0.64 2.06 -1.02 3.38 -1.02 l0 0 c1.84 0 3.22 0.9 4.32 1.62 l0 0 c0.2 0.14 0.26 0.4 0.12 0.62 l0 0 c-0.12 0.2 -0.4 0.26 -0.6 0.12 l0 0 c-1.1 -0.72 -2.3 -1.48 -3.84 -1.48 l0 0 c-1.14 0 -2.16 0.34 -2.86 0.84 l0 0 c-0.7 0.52 -1.1 1.2 -1.1 1.92 l0 0 c0.02 0.7 0.34 1.22 1.04 1.7 l0 0 c0.7 0.48 1.74 0.82 3 1.06 l0 0 l0.04 0 c1.4 0.26 2.64 0.66 3.56 1.28 l0 0 c0.92 0.6 1.54 1.52 1.54 2.64 l0 0 c0 1.12 -0.64 2.12 -1.58 2.8 l0 0 c-0.94 0.68 -2.2 1.1 -3.6 1.1 l0 0 c-2.14 -0.02 -4 -1.1 -5.16 -2.02 l0 0 z M22.4 23.52 l0 -5.46 c0 -1.72 -1.4 -2.88 -3.12 -2.88 c-1.7 0 -3.1 1.16 -3.1 2.88 l0 5.46 l0 0.06 c0 0.04 -0.02 0.06 -0.02 0.08 c-0.02 0.04 -0.02 0.06 -0.04 0.08 c-0.06 0.12 -0.16 0.2 -0.3 0.24 c0 0 -0.02 0.02 -0.04 0.02 l-0.04 0 l-0.06 0 c-0.14 0 -0.28 -0.06 -0.38 -0.16 c-0.04 -0.06 -0.06 -0.1 -0.08 -0.16 s-0.02 -0.1 -0.02 -0.16 l0 -5.46 l0 -0.16 l0 -7.42 c0 -0.26 0.22 -0.48 0.48 -0.48 c0.28 0 0.5 0.22 0.5 0.48 l0 5.16 c0.74 -0.88 1.86 -1.44 3.1 -1.44 c2.26 0 4.1 1.6 4.1 3.86 l0 5.46 c0 0.26 -0.22 0.48 -0.5 0.48 c-0.26 0 -0.48 -0.22 -0.48 -0.48 z M35.2 14.2 c0.26 0 0.48 0.2 0.48 0.48 l0 8.84 c0 0.26 -0.22 0.48 -0.48 0.48 s-0.48 -0.22 -0.48 -0.48 l0 -1.46 c-0.84 1.16 -2.18 1.94 -3.68 1.94 c-2.58 0 -4.64 -2.22 -4.64 -4.9 s2.06 -4.9 4.64 -4.9 c1.5 0 2.84 0.76 3.68 1.92 l0 -1.44 c0 -0.28 0.22 -0.48 0.48 -0.48 z M31.040000000000003 23.04 c2.02 0 3.68 -1.74 3.68 -3.94 s-1.66 -3.96 -3.68 -3.96 c-2 0 -3.68 1.76 -3.68 3.96 s1.68 3.94 3.68 3.94 z M39.84 23.52 l0 -8.82 c0 -0.28 0.22 -0.48 0.5 -0.48 c0.24 0 0.46 0.2 0.46 0.48 l0 2.16 c0.04 -0.08 0.08 -0.16 0.14 -0.24 c0.74 -1.16 2.04 -2.4 3.92 -2.4 c0.26 0 0.48 0.2 0.48 0.48 c0 0.26 -0.22 0.48 -0.48 0.48 c-1.28 0 -2.16 0.72 -2.84 1.6 c-0.66 0.88 -1.04 1.88 -1.18 2.28 c-0.04 0.08 -0.04 0.12 -0.04 0.16 l0 4.3 c0 0.28 -0.22 0.48 -0.46 0.48 c-0.28 0 -0.5 -0.2 -0.5 -0.48 z M52.68000000000001 24 c-2.64 0 -4.76 -2.2 -4.76 -4.88 c0 -2.72 2.12 -4.92 4.76 -4.92 c2.52 0 4.52 2 4.72 4.56 l0 0.02 l0 0.06 c0 0.26 -0.22 0.44 -0.48 0.44 l-8.04 0 c0.1 2.14 1.78 3.76 3.8 3.76 c1.3 0 2.5 -0.68 3.16 -1.78 c0.14 -0.24 0.44 -0.28 0.64 -0.16 c0.22 0.16 0.3 0.44 0.16 0.68 c-0.84 1.34 -2.3 2.22 -3.96 2.22 z M52.68000000000001 15.16 c-1.84 0 -3.38 1.32 -3.74 3.18 l7.42 0 c-0.32 -1.84 -1.88 -3.18 -3.68 -3.18 z M70.44 23.74 l-8.4 -11.68 l0 11.46 c0 0.26 -0.22 0.48 -0.48 0.48 s-0.48 -0.22 -0.48 -0.48 l0 -12.84 c-0.06 -0.2 0 -0.4 0.18 -0.54 c0.22 -0.14 0.54 -0.1 0.68 0.12 l8.48 11.76 l0 -11.4 c0 -0.26 0.22 -0.48 0.48 -0.48 c0.28 0 0.5 0.22 0.5 0.48 l0 12.9 c0 0.26 -0.22 0.48 -0.5 0.48 c-0.16 0 -0.28 -0.06 -0.38 -0.18 c-0.02 -0.02 -0.06 -0.04 -0.08 -0.08 z M80.28 24 c-2.64 0 -4.76 -2.2 -4.76 -4.88 c0 -2.72 2.12 -4.92 4.76 -4.92 c2.52 0 4.52 2 4.72 4.56 l0 0.02 l0 0.06 c0 0.26 -0.22 0.44 -0.48 0.44 l-8.04 0 c0.1 2.14 1.78 3.76 3.8 3.76 c1.3 0 2.5 -0.68 3.16 -1.78 c0.14 -0.24 0.44 -0.28 0.64 -0.16 c0.22 0.16 0.3 0.44 0.16 0.68 c-0.84 1.34 -2.3 2.22 -3.96 2.22 z M80.28 15.16 c-1.84 0 -3.38 1.32 -3.74 3.18 l7.42 0 c-0.32 -1.84 -1.88 -3.18 -3.68 -3.18 z M87.77999999999999 22.6 c-0.2 -0.18 -0.22 -0.44 -0.06 -0.64 l0 0 c0.16 -0.2 0.46 -0.24 0.68 -0.06 l0 0 c0.68 0.5 1.76 1.14 3 1.14 l0 0 c0.76 0 1.42 -0.24 1.86 -0.6 l0 0 c0.48 -0.32 0.74 -0.76 0.74 -1.2 l0 0 c-0.02 -0.46 -0.2 -0.78 -0.7 -1.2 l0 0 c-0.42 -0.32 -1.12 -0.56 -2.08 -0.72 l0 0 l-0.04 -0.02 c-0.88 -0.16 -1.66 -0.36 -2.22 -0.76 l0 0 c-0.62 -0.36 -1.06 -1 -1.06 -1.76 l0 0 c0 -0.78 0.44 -1.46 1.06 -1.92 l0 0 c0.58 -0.4 1.4 -0.66 2.4 -0.66 l0 0 c1.26 0 2.16 0.58 2.92 1.06 l0 0 c0.22 0.16 0.28 0.46 0.14 0.68 l0 0 c-0.14 0.22 -0.44 0.28 -0.66 0.14 l0 0 c-0.72 -0.48 -1.44 -0.98 -2.4 -0.98 l0 0 c-0.8 0 -1.44 0.22 -1.86 0.56 l0 0 c-0.4 0.32 -0.62 0.72 -0.62 1.12 l0 0 c0 0.4 0.18 0.68 0.56 0.98 l0 0 c0.44 0.3 1.1 0.54 2 0.68 l0 0 l0.04 0 c0.94 0.14 1.7 0.42 2.38 0.8 l0 0 c0.64 0.42 1.1 1.18 1.1 2 l0 0 c0 0.82 -0.46 1.48 -1.12 1.98 l0 0 c-0.68 0.5 -1.48 0.78 -2.44 0.78 l0 0 c-1.58 -0.02 -2.82 -0.76 -3.62 -1.4 l0 0 z M101.17999999999999 14.2 c0.24 0 0.48 0.24 0.48 0.48 s-0.24 0.48 -0.48 0.48 l-1.26 0 l0 7.14 c0 0.48 0.48 0.72 0.72 0.72 s0.5 0.26 0.5 0.5 s-0.26 0.48 -0.5 0.48 c-0.98 0 -1.72 -0.72 -1.72 -1.7 l0 -7.14 l-1.22 0 c-0.48 0 -0.48 -0.24 -0.48 -0.48 s0 -0.48 0.48 -0.48 l1.22 0 l0 -3.64 c0 -0.24 0.24 -0.48 0.48 -0.48 c0.26 0 0.52 0.24 0.52 0.48 l0 3.64 l1.26 0 z"/></g><g id="SvgjsG1170" featureKey="text3" fill="#fff" transform="matrix(1.6877637945777375,0,0,1.6877637945777375,36.45569619234445,207.45991610079977)"><path d="M2.1 18.34 l0 -7.86 c0 -0.26 0.22 -0.48 0.48 -0.48 l0 0 c0.28 0 0.5 0.22 0.5 0.48 l0 0 l0 7.86 c0 2.58 2.1 4.66 4.66 4.68 l0 0 c2.6 -0.02 4.7 -2.1 4.7 -4.68 l0 0 l0 -7.86 l0 0 c0 -0.26 0.22 -0.48 0.48 -0.48 l0 0 c0.28 0 0.5 0.22 0.5 0.48 l0 0 l0 7.86 c0 3.12 -2.54 5.66 -5.68 5.66 l0 0 c-3.1 0 -5.64 -2.54 -5.64 -5.66 l0 0 z  M34.72 17.7 l-3.82 0 c-0.28 0 -0.5 -0.2 -0.5 -0.48 s0.22 -0.5 0.5 -0.5 l4.32 0 l0.06 0 c0.24 0.02 0.44 0.24 0.44 0.5 l0 4.8 l0 0.08 c-0.02 0.14 -0.08 0.28 -0.18 0.36 c-1.24 0.98 -2.8 1.54 -4.52 1.54 c-4.02 -0.02 -7.28 -3.16 -7.28 -7.12 c0 -3.9 3.26 -7.08 7.28 -7.08 c1.74 0 3.28 0.6 4.54 1.58 c0.18 0.14 0.24 0.48 0.06 0.68 c-0.16 0.2 -0.46 0.24 -0.7 0.08 c-1.02 -0.84 -2.4 -1.36 -3.9 -1.36 c-3.5 0 -6.3 2.74 -6.3 6.1 c0 3.4 2.8 6.14 6.3 6.14 c1.36 0 2.66 -0.44 3.7 -1.2 l0 -4.12 z M44.480000000000004 24 c-2.64 0 -4.76 -2.2 -4.76 -4.88 c0 -2.72 2.12 -4.92 4.76 -4.92 c2.52 0 4.52 2 4.72 4.56 l0 0.02 l0 0.06 c0 0.26 -0.22 0.44 -0.48 0.44 l-8.04 0 c0.1 2.14 1.78 3.76 3.8 3.76 c1.3 0 2.5 -0.68 3.16 -1.78 c0.14 -0.24 0.44 -0.28 0.64 -0.16 c0.22 0.16 0.3 0.44 0.16 0.68 c-0.84 1.34 -2.3 2.22 -3.96 2.22 z M44.480000000000004 15.16 c-1.84 0 -3.38 1.32 -3.74 3.18 l7.42 0 c-0.32 -1.84 -1.88 -3.18 -3.68 -3.18 z M55.54 14.2 c0.24 0 0.48 0.24 0.48 0.48 s-0.24 0.48 -0.48 0.48 l-1.26 0 l0 7.14 c0 0.48 0.48 0.72 0.72 0.72 s0.5 0.26 0.5 0.5 s-0.26 0.48 -0.5 0.48 c-0.98 0 -1.72 -0.72 -1.72 -1.7 l0 -7.14 l-1.22 0 c-0.48 0 -0.48 -0.24 -0.48 -0.48 s0 -0.48 0.48 -0.48 l1.22 0 l0 -3.64 c0 -0.24 0.24 -0.48 0.48 -0.48 c0.26 0 0.52 0.24 0.52 0.48 l0 3.64 l1.26 0 z  M66.30000000000001 10.12 c0.24 -0.12 0.54 0 0.64 0.24 l5 11.9 l3.56 -8.42 c0.1 -0.18 0.28 -0.3 0.46 -0.3 c0.22 0 0.4 0.12 0.5 0.3 l3.54 8.42 l5 -11.9 c0.12 -0.24 0.38 -0.36 0.66 -0.24 c0.24 0.1 0.36 0.4 0.24 0.64 l-5.44 12.92 c-0.08 0.18 -0.26 0.3 -0.4 0.32 l-0.04 0 l-0.06 0 c-0.08 0 -0.16 -0.02 -0.24 -0.08 c-0.02 -0.02 -0.06 -0.04 -0.08 -0.08 c-0.02 -0.02 -0.06 -0.08 -0.08 -0.12 c0 -0.02 0 -0.04 -0.02 -0.06 l-3.56 -8.46 l-3.58 8.46 c0 0.04 -0.02 0.08 -0.04 0.1 c-0.02 0.06 -0.06 0.1 -0.1 0.14 c-0.02 0 -0.04 0.02 -0.04 0.02 c-0.08 0.06 -0.18 0.08 -0.28 0.08 c-0.12 0 -0.22 -0.04 -0.3 -0.1 l-0.04 -0.04 l-0.02 -0.02 c-0.06 -0.06 -0.1 -0.14 -0.12 -0.24 l-5.4 -12.84 c-0.12 -0.24 0 -0.54 0.24 -0.64 z M95.84 23.52 l0 -5.46 c0 -1.72 -1.4 -2.88 -3.12 -2.88 c-1.7 0 -3.1 1.16 -3.1 2.88 l0 5.46 l0 0.06 c0 0.04 -0.02 0.06 -0.02 0.08 c-0.02 0.04 -0.02 0.06 -0.04 0.08 c-0.06 0.12 -0.16 0.2 -0.3 0.24 c0 0 -0.02 0.02 -0.04 0.02 l-0.04 0 l-0.06 0 c-0.14 0 -0.28 -0.06 -0.38 -0.16 c-0.04 -0.06 -0.06 -0.1 -0.08 -0.16 s-0.02 -0.1 -0.02 -0.16 l0 -5.46 l0 -0.16 l0 -7.42 c0 -0.26 0.22 -0.48 0.48 -0.48 c0.28 0 0.5 0.22 0.5 0.48 l0 5.16 c0.74 -0.88 1.86 -1.44 3.1 -1.44 c2.26 0 4.1 1.6 4.1 3.86 l0 5.46 c0 0.26 -0.22 0.48 -0.5 0.48 c-0.26 0 -0.48 -0.22 -0.48 -0.48 z M108.64 14.2 c0.26 0 0.48 0.2 0.48 0.48 l0 8.84 c0 0.26 -0.22 0.48 -0.48 0.48 s-0.48 -0.22 -0.48 -0.48 l0 -1.46 c-0.84 1.16 -2.18 1.94 -3.68 1.94 c-2.58 0 -4.64 -2.22 -4.64 -4.9 s2.06 -4.9 4.64 -4.9 c1.5 0 2.84 0.76 3.68 1.92 l0 -1.44 c0 -0.28 0.22 -0.48 0.48 -0.48 z M104.48 23.04 c2.02 0 3.68 -1.74 3.68 -3.94 s-1.66 -3.96 -3.68 -3.96 c-2 0 -3.68 1.76 -3.68 3.96 s1.68 3.94 3.68 3.94 z M116.22 14.2 c0.24 0 0.48 0.24 0.48 0.48 s-0.24 0.48 -0.48 0.48 l-1.26 0 l0 7.14 c0 0.48 0.48 0.72 0.72 0.72 s0.5 0.26 0.5 0.5 s-0.26 0.48 -0.5 0.48 c-0.98 0 -1.72 -0.72 -1.72 -1.7 l0 -7.14 l-1.22 0 c-0.48 0 -0.48 -0.24 -0.48 -0.48 s0 -0.48 0.48 -0.48 l1.22 0 l0 -3.64 c0 -0.24 0.24 -0.48 0.48 -0.48 c0.26 0 0.52 0.24 0.52 0.48 l0 3.64 l1.26 0 z  M127.52 18.34 l0 -7.86 c0 -0.26 0.22 -0.48 0.48 -0.48 l0 0 c0.28 0 0.5 0.22 0.5 0.48 l0 0 l0 7.86 c0 2.58 2.1 4.66 4.66 4.68 l0 0 c2.6 -0.02 4.7 -2.1 4.7 -4.68 l0 0 l0 -7.86 l0 0 c0 -0.26 0.22 -0.48 0.48 -0.48 l0 0 c0.28 0 0.5 0.22 0.5 0.48 l0 0 l0 7.86 c0 3.12 -2.54 5.66 -5.68 5.66 l0 0 c-3.1 0 -5.64 -2.54 -5.64 -5.66 l0 0 z  M149.2 22 c-0.18 -0.16 -0.2 -0.44 -0.06 -0.62 l0 0 c0.16 -0.2 0.44 -0.22 0.62 -0.06 l0 0 c1.04 0.84 2.78 1.82 4.6 1.8 l0 0 c1.22 0 2.32 -0.36 3.08 -0.92 l0 0 c0.78 -0.56 1.2 -1.3 1.2 -2.08 l0 0 c0 -0.8 -0.38 -1.4 -1.14 -1.92 l0 0 c-0.76 -0.5 -1.88 -0.88 -3.24 -1.14 l0 0 l-0.04 0 c-1.3 -0.24 -2.44 -0.6 -3.3 -1.18 l0 0 c-0.86 -0.56 -1.44 -1.4 -1.44 -2.44 l0 0 c0 -1.06 0.58 -1.98 1.46 -2.62 l0 0 c0.88 -0.64 2.06 -1.02 3.38 -1.02 l0 0 c1.84 0 3.22 0.9 4.32 1.62 l0 0 c0.2 0.14 0.26 0.4 0.12 0.62 l0 0 c-0.12 0.2 -0.4 0.26 -0.6 0.12 l0 0 c-1.1 -0.72 -2.3 -1.48 -3.84 -1.48 l0 0 c-1.14 0 -2.16 0.34 -2.86 0.84 l0 0 c-0.7 0.52 -1.1 1.2 -1.1 1.92 l0 0 c0.02 0.7 0.34 1.22 1.04 1.7 l0 0 c0.7 0.48 1.74 0.82 3 1.06 l0 0 l0.04 0 c1.4 0.26 2.64 0.66 3.56 1.28 l0 0 c0.92 0.6 1.54 1.52 1.54 2.64 l0 0 c0 1.12 -0.64 2.12 -1.58 2.8 l0 0 c-0.94 0.68 -2.2 1.1 -3.6 1.1 l0 0 c-2.14 -0.02 -4 -1.1 -5.16 -2.02 l0 0 z M170.1 23.52 l0 -5.46 c0 -1.72 -1.4 -2.88 -3.12 -2.88 c-1.7 0 -3.1 1.16 -3.1 2.88 l0 5.46 l0 0.06 c0 0.04 -0.02 0.06 -0.02 0.08 c-0.02 0.04 -0.02 0.06 -0.04 0.08 c-0.06 0.12 -0.16 0.2 -0.3 0.24 c0 0 -0.02 0.02 -0.04 0.02 l-0.04 0 l-0.06 0 c-0.14 0 -0.28 -0.06 -0.38 -0.16 c-0.04 -0.06 -0.06 -0.1 -0.08 -0.16 s-0.02 -0.1 -0.02 -0.16 l0 -5.46 l0 -0.16 l0 -7.42 c0 -0.26 0.22 -0.48 0.48 -0.48 c0.28 0 0.5 0.22 0.5 0.48 l0 5.16 c0.74 -0.88 1.86 -1.44 3.1 -1.44 c2.26 0 4.1 1.6 4.1 3.86 l0 5.46 c0 0.26 -0.22 0.48 -0.5 0.48 c-0.26 0 -0.48 -0.22 -0.48 -0.48 z M182.89999999999998 14.2 c0.26 0 0.48 0.2 0.48 0.48 l0 8.84 c0 0.26 -0.22 0.48 -0.48 0.48 s-0.48 -0.22 -0.48 -0.48 l0 -1.46 c-0.84 1.16 -2.18 1.94 -3.68 1.94 c-2.58 0 -4.64 -2.22 -4.64 -4.9 s2.06 -4.9 4.64 -4.9 c1.5 0 2.84 0.76 3.68 1.92 l0 -1.44 c0 -0.28 0.22 -0.48 0.48 -0.48 z M178.73999999999998 23.04 c2.02 0 3.68 -1.74 3.68 -3.94 s-1.66 -3.96 -3.68 -3.96 c-2 0 -3.68 1.76 -3.68 3.96 s1.68 3.94 3.68 3.94 z M187.54 23.52 l0 -8.82 c0 -0.28 0.22 -0.48 0.5 -0.48 c0.24 0 0.46 0.2 0.46 0.48 l0 2.16 c0.04 -0.08 0.08 -0.16 0.14 -0.24 c0.74 -1.16 2.04 -2.4 3.92 -2.4 c0.26 0 0.48 0.2 0.48 0.48 c0 0.26 -0.22 0.48 -0.48 0.48 c-1.28 0 -2.16 0.72 -2.84 1.6 c-0.66 0.88 -1.04 1.88 -1.18 2.28 c-0.04 0.08 -0.04 0.12 -0.04 0.16 l0 4.3 c0 0.28 -0.22 0.48 -0.46 0.48 c-0.28 0 -0.5 -0.2 -0.5 -0.48 z M200.37999999999997 24 c-2.64 0 -4.76 -2.2 -4.76 -4.88 c0 -2.72 2.12 -4.92 4.76 -4.92 c2.52 0 4.52 2 4.72 4.56 l0 0.02 l0 0.06 c0 0.26 -0.22 0.44 -0.48 0.44 l-8.04 0 c0.1 2.14 1.78 3.76 3.8 3.76 c1.3 0 2.5 -0.68 3.16 -1.78 c0.14 -0.24 0.44 -0.28 0.64 -0.16 c0.22 0.16 0.3 0.44 0.16 0.68 c-0.84 1.34 -2.3 2.22 -3.96 2.22 z M200.37999999999997 15.16 c-1.84 0 -3.38 1.32 -3.74 3.18 l7.42 0 c-0.32 -1.84 -1.88 -3.18 -3.68 -3.18 z"/></g>
			</g>
		</svg>
	