<?xml version="1.0" encoding="utf-8"?>
<!-- Generator: Adobe Illustrator 24.1.0, SVG Export Plug-In . SVG Version: 6.00 Build 0)  -->
<svg version="1.1" id="Layer_1" xmlns="http://www.w3.org/2000/svg" xmlns:xlink="http://www.w3.org/1999/xlink" x="0px" y="0px"
	 viewBox="0 0 165 91" style="enable-background:new 0 0 165 91;" xml:space="preserve">
<style type="text/css">
	.st0{fill-rule:evenodd;clip-rule:evenodd;fill:#FFFFFF;}
	.st1{fill:#FFFFFF;}
</style>
<g transform="scale(7.087893951539813) translate(10, 10)">
	<g id="SvgjsG1167" transform="matrix(1,0,0,1,0,0)">
	</g>
	<g id="SvgjsG1168" transform="matrix(4.673091383676609,0,0,4.673091383676609,114.98072584897017,-38.27416250896723)">
		<desc  xmlns="http://www.w3.org/2000/svg">Created with Sketch.</desc>
		<g sketch:type="MSPage" xmlns:sketch="http://www.bohemiancoding.com/sketch/ns">
			<g sketch:type="MSArtboardGroup">
				<path sketch:type="MSShapeGroup" class="st0" d="M-23.6,6.9c0.1,0,0.2-0.1,0.3-0.1c0,0,0,0,0,0c0-0.2-0.1-0.2-0.3-0.3l0,0
					c0-0.1-0.1-0.3-0.2-0.3c-0.1,0-0.3,0.1-0.4,0.2c0,0,0,0,0,0c0,0,0,0-0.1,0c-0.1-0.1-0.2-0.1-0.3-0.1c-0.1,0-0.1,0.1-0.2,0.2l0,0
					c-0.3,0.1-0.4,0.2-0.4,0.3c0,0,0,0.1,0,0.1l0,0c0.1,0.1,0.3,0.2,0.6,0.3C-24.3,7.1-23.9,7.1-23.6,6.9
					C-23.6,6.9-23.6,6.9-23.6,6.9L-23.6,6.9z M-23.9,7C-23.8,6.9-23.8,6.9-23.9,7c0.1-0.1,0.2-0.2,0.2-0.3c0.1-0.2,0-0.4-0.1-0.5
					c-0.1,0-0.3,0.1-0.4,0.3l0,0c0,0,0.1,0.1,0.1,0.2c0,0,0,0.2,0,0.3c0,0,0,0,0,0C-24.1,7-24,7-23.9,7z M-24.7,6.9c0,0,0-0.1,0-0.1
					c0-0.2,0.1-0.4,0.2-0.5s0.3,0.1,0.4,0.3c0,0.1,0,0.2,0,0.2c0,0,0,0-0.1,0.1C-24.4,7-24.6,7-24.7,6.9z M-25,7
					c0,0,0.1,0.1,0.1,0.1l0,0c0,0,0.1,0,0.1,0C-24.9,7.1-25,7.1-25,7L-25,7z M-23.8,7.3c-0.1,0.1-0.3,0.1-0.5,0.1
					c-0.3,0-0.5-0.1-0.6-0.2l0,0c0.1,0,0.1,0,0.2,0C-24.4,7.3-24.1,7.3-23.8,7.3L-23.8,7.3z M-23.6,7.2c0.1-0.1,0.2-0.2,0.3-0.3
					c-0.4,0.2-0.6,0.3-1.1,0.3C-24.2,7.2-23.9,7.2-23.6,7.2L-23.6,7.2z M-24.8,6.9c-0.1,0-0.2-0.1-0.2-0.2c0-0.1,0.1-0.1,0.2-0.2
					C-24.8,6.6-24.8,6.8-24.8,6.9C-24.8,6.9-24.8,6.9-24.8,6.9L-24.8,6.9z M-23.6,6.9c0.1,0,0.1-0.1,0.1-0.1c0,0,0-0.1-0.1-0.1
					C-23.6,6.7-23.6,6.7-23.6,6.9C-23.6,6.8-23.6,6.8-23.6,6.9L-23.6,6.9z"/>
			</g>
		</g>
	</g>
	<g id="SvgjsG1169" transform="matrix(4.219409486444344,0,0,4.219409486444344,-5.6882913334339325,107.64979025199939)">
		<path class="st1" d="M-0.8-25.5C-0.9-25.5-0.9-25.5-0.8-25.5L-0.8-25.5C-0.8-25.5-0.8-25.5-0.8-25.5L-0.8-25.5
			c0.1,0,0.2,0.1,0.3,0.1l0,0c0.1,0,0.1,0,0.2,0l0,0c0,0,0.1-0.1,0.1-0.1l0,0c0,0,0-0.1-0.1-0.1l0,0c0,0-0.1,0-0.2-0.1l0,0h0
			c-0.1,0-0.1,0-0.2-0.1l0,0c0,0-0.1-0.1-0.1-0.1l0,0c0-0.1,0-0.1,0.1-0.1l0,0c0,0,0.1-0.1,0.2-0.1l0,0c0.1,0,0.2,0,0.2,0.1l0,0
			c0,0,0,0,0,0l0,0c0,0,0,0,0,0l0,0c-0.1,0-0.1-0.1-0.2-0.1l0,0c-0.1,0-0.1,0-0.1,0l0,0c0,0-0.1,0.1-0.1,0.1l0,0c0,0,0,0.1,0.1,0.1
			l0,0c0,0,0.1,0,0.2,0.1l0,0h0c0.1,0,0.1,0,0.2,0.1l0,0c0,0,0.1,0.1,0.1,0.1l0,0c0,0.1,0,0.1-0.1,0.1l0,0c0,0-0.1,0.1-0.2,0.1l0,0
			C-0.7-25.4-0.8-25.4-0.8-25.5L-0.8-25.5L-0.8-25.5z M0.2-25.4v-0.3c0-0.1-0.1-0.1-0.2-0.1c-0.1,0-0.2,0.1-0.2,0.1v0.3v0
			c0,0,0,0,0,0c0,0,0,0,0,0c0,0,0,0,0,0c0,0,0,0,0,0h0h0c0,0,0,0,0,0c0,0,0,0,0,0c0,0,0,0,0,0v-0.3v0v-0.4c0,0,0,0,0,0c0,0,0,0,0,0
			v0.3c0,0,0.1-0.1,0.2-0.1c0.1,0,0.2,0.1,0.2,0.2L0.2-25.4C0.3-25.4,0.3-25.4,0.2-25.4C0.2-25.4,0.2-25.4,0.2-25.4L0.2-25.4z
			 M0.9-25.9C0.9-25.9,0.9-25.9,0.9-25.9l0,0.5c0,0,0,0,0,0s0,0,0,0v-0.1c0,0.1-0.1,0.1-0.2,0.1c-0.1,0-0.2-0.1-0.2-0.3
			s0.1-0.3,0.2-0.3C0.8-25.9,0.8-25.8,0.9-25.9L0.9-25.9C0.9-25.9,0.9-25.9,0.9-25.9L0.9-25.9z M0.7-25.4c0.1,0,0.2-0.1,0.2-0.2
			c0-0.1-0.1-0.2-0.2-0.2c-0.1,0-0.2,0.1-0.2,0.2C0.5-25.5,0.6-25.4,0.7-25.4z M1.1-25.4v-0.5c0,0,0,0,0,0c0,0,0,0,0,0v0.1
			c0,0,0,0,0,0c0-0.1,0.1-0.1,0.2-0.1c0,0,0,0,0,0c0,0,0,0,0,0c-0.1,0-0.1,0-0.1,0.1c0,0-0.1,0.1-0.1,0.1c0,0,0,0,0,0L1.1-25.4
			C1.2-25.4,1.2-25.4,1.1-25.4C1.2-25.4,1.1-25.4,1.1-25.4z M1.8-25.4c-0.1,0-0.2-0.1-0.2-0.3c0-0.1,0.1-0.3,0.2-0.3
			c0.1,0,0.2,0.1,0.2,0.2v0v0c0,0,0,0,0,0H1.6C1.6-25.5,1.7-25.4,1.8-25.4c0.1,0,0.1-0.1,0.2-0.1c0,0,0,0,0,0c0,0,0,0,0,0
			C2-25.4,1.9-25.4,1.8-25.4L1.8-25.4z M1.8-25.8c-0.1,0-0.2,0.1-0.2,0.2H2C2-25.8,1.9-25.8,1.8-25.8z M2.7-25.4L2.3-26v0.6
			c0,0,0,0,0,0c0,0,0,0,0,0v-0.7c0,0,0,0,0,0c0,0,0,0,0,0L2.7-25.4l0-0.7c0,0,0,0,0,0c0,0,0,0,0,0L2.7-25.4
			C2.8-25.4,2.8-25.4,2.7-25.4C2.7-25.4,2.7-25.4,2.7-25.4C2.7-25.4,2.7-25.4,2.7-25.4z M3.2-25.4c-0.1,0-0.2-0.1-0.2-0.3
			c0-0.1,0.1-0.3,0.2-0.3c0.1,0,0.2,0.1,0.2,0.2v0v0c0,0,0,0,0,0H3C3-25.5,3.1-25.4,3.2-25.4c0.1,0,0.1-0.1,0.2-0.1c0,0,0,0,0,0
			c0,0,0,0,0,0C3.4-25.4,3.3-25.4,3.2-25.4L3.2-25.4z M3.2-25.8c-0.1,0-0.2,0.1-0.2,0.2h0.4C3.4-25.8,3.3-25.8,3.2-25.8z M3.6-25.4
			C3.6-25.5,3.6-25.5,3.6-25.4L3.6-25.4C3.6-25.5,3.7-25.5,3.6-25.4L3.6-25.4c0.1,0,0.1,0,0.2,0l0,0c0,0,0.1,0,0.1,0l0,0
			c0,0,0,0,0-0.1l0,0c0,0,0,0,0-0.1l0,0c0,0-0.1,0-0.1,0l0,0l0,0c0,0-0.1,0-0.1,0l0,0c0,0-0.1-0.1-0.1-0.1l0,0c0,0,0-0.1,0.1-0.1
			l0,0c0,0,0.1,0,0.1,0l0,0c0.1,0,0.1,0,0.2,0.1l0,0c0,0,0,0,0,0l0,0c0,0,0,0,0,0l0,0c0,0-0.1-0.1-0.1-0.1l0,0c0,0-0.1,0-0.1,0l0,0
			c0,0,0,0,0,0.1l0,0c0,0,0,0,0,0.1l0,0c0,0,0.1,0,0.1,0l0,0h0c0,0,0.1,0,0.1,0l0,0c0,0,0.1,0.1,0.1,0.1l0,0c0,0,0,0.1-0.1,0.1l0,0
			c0,0-0.1,0-0.1,0l0,0C3.7-25.4,3.7-25.4,3.6-25.4L3.6-25.4L3.6-25.4z M4.3-25.9C4.3-25.9,4.4-25.9,4.3-25.9
			C4.4-25.8,4.3-25.8,4.3-25.9L4.3-25.9l-0.1,0.4c0,0,0,0,0,0s0,0,0,0c0,0,0,0,0,0c-0.1,0-0.1,0-0.1-0.1v-0.4H4.1c0,0,0,0,0,0
			s0,0,0,0h0.1v-0.2c0,0,0,0,0,0c0,0,0,0,0,0L4.3-25.9L4.3-25.9L4.3-25.9z"/>
	</g>
	<g id="SvgjsG1170" transform="matrix(1.6877637945777375,0,0,1.6877637945777375,36.45569619234445,207.45991610079977)">
		<path class="st1" d="M-25.9-121.7v-0.4c0,0,0,0,0,0l0,0c0,0,0,0,0,0l0,0L-25.9-121.7c0.1,0.1,0.2,0.2,0.3,0.2l0,0
			c0.1,0,0.2-0.1,0.2-0.2l0,0v-0.4l0,0c0,0,0,0,0,0l0,0c0,0,0,0,0,0l0,0v0.4c0,0.2-0.1,0.3-0.3,0.3l0,0
			C-25.7-121.4-25.9-121.5-25.9-121.7C-25.9-121.7-25.9-121.7-25.9-121.7z M-24.2-121.7h-0.2c0,0,0,0,0,0s0,0,0,0L-24.2-121.7
			L-24.2-121.7C-24.1-121.7-24.1-121.7-24.2-121.7l0.1,0.2v0c0,0,0,0,0,0c-0.1,0.1-0.1,0.1-0.2,0.1c-0.2,0-0.4-0.2-0.4-0.4
			c0-0.2,0.2-0.4,0.4-0.4c0.1,0,0.2,0,0.2,0.1c0,0,0,0,0,0c0,0,0,0,0,0c-0.1,0-0.1-0.1-0.2-0.1c-0.2,0-0.3,0.1-0.3,0.3
			c0,0.2,0.1,0.3,0.3,0.3c0.1,0,0.1,0,0.2-0.1V-121.7z M-23.7-121.4c-0.1,0-0.2-0.1-0.2-0.3c0-0.1,0.1-0.3,0.2-0.3
			c0.1,0,0.2,0.1,0.2,0.2v0v0c0,0,0,0,0,0h-0.4C-23.9-121.5-23.8-121.4-23.7-121.4c0.1,0,0.1-0.1,0.2-0.1c0,0,0,0,0,0c0,0,0,0,0,0
			C-23.5-121.4-23.6-121.4-23.7-121.4L-23.7-121.4z M-23.7-121.8c-0.1,0-0.2,0.1-0.2,0.2h0.4C-23.5-121.8-23.6-121.8-23.7-121.8
			L-23.7-121.8z M-23.1-121.9C-23.1-121.9-23.1-121.9-23.1-121.9C-23.1-121.8-23.1-121.8-23.1-121.9L-23.1-121.9l-0.1,0.4
			c0,0,0,0,0,0s0,0,0,0c0,0,0,0,0,0c-0.1,0-0.1,0-0.1-0.1v-0.4h-0.1c0,0,0,0,0,0c0,0,0,0,0,0h0.1v-0.2c0,0,0,0,0,0c0,0,0,0,0,0
			L-23.1-121.9L-23.1-121.9L-23.1-121.9z M-22.5-122.1C-22.5-122.1-22.5-122.1-22.5-122.1l0.3,0.6l0.2-0.4c0,0,0,0,0,0c0,0,0,0,0,0
			l0.2,0.4l0.3-0.6c0,0,0,0,0,0c0,0,0,0,0,0l-0.3,0.7c0,0,0,0,0,0h0h0c0,0,0,0,0,0c0,0,0,0,0,0c0,0,0,0,0,0c0,0,0,0,0,0l-0.2-0.4
			l-0.2,0.4c0,0,0,0,0,0c0,0,0,0,0,0c0,0,0,0,0,0c0,0,0,0,0,0c0,0,0,0,0,0l0,0l0,0c0,0,0,0,0,0L-22.5-122.1
			C-22.6-122.1-22.6-122.1-22.5-122.1L-22.5-122.1z M-21-121.4v-0.3c0-0.1-0.1-0.1-0.2-0.1c-0.1,0-0.2,0.1-0.2,0.1v0.3v0
			c0,0,0,0,0,0c0,0,0,0,0,0c0,0,0,0,0,0c0,0,0,0,0,0h0h0c0,0,0,0,0,0c0,0,0,0,0,0c0,0,0,0,0,0v-0.3v0v-0.4c0,0,0,0,0,0c0,0,0,0,0,0
			v0.3c0,0,0.1-0.1,0.2-0.1c0.1,0,0.2,0.1,0.2,0.2L-21-121.4C-21-121.4-21-121.4-21-121.4C-21-121.4-21-121.4-21-121.4z
			 M-20.3-121.9C-20.3-121.9-20.3-121.9-20.3-121.9l0,0.5c0,0,0,0,0,0c0,0,0,0,0,0v-0.1c0,0.1-0.1,0.1-0.2,0.1
			c-0.1,0-0.2-0.1-0.2-0.3s0.1-0.3,0.2-0.3C-20.5-121.9-20.4-121.8-20.3-121.9L-20.3-121.9C-20.4-121.9-20.4-121.9-20.3-121.9
			L-20.3-121.9z M-20.6-121.4c0.1,0,0.2-0.1,0.2-0.2c0-0.1-0.1-0.2-0.2-0.2c-0.1,0-0.2,0.1-0.2,0.2
			C-20.8-121.5-20.7-121.4-20.6-121.4z M-20-121.9C-19.9-121.9-19.9-121.9-20-121.9C-19.9-121.8-19.9-121.8-20-121.9L-20-121.9
			l-0.1,0.4c0,0,0,0,0,0c0,0,0,0,0,0c0,0,0,0,0,0c-0.1,0-0.1,0-0.1-0.1v-0.4h-0.1c0,0,0,0,0,0c0,0,0,0,0,0h0.1v-0.2c0,0,0,0,0,0
			c0,0,0,0,0,0L-20-121.9L-20-121.9L-20-121.9z M-19.4-121.7v-0.4c0,0,0,0,0,0l0,0c0,0,0,0,0,0l0,0L-19.4-121.7
			c0.1,0.1,0.2,0.2,0.3,0.2l0,0c0.1,0,0.2-0.1,0.2-0.2l0,0v-0.4l0,0c0,0,0,0,0,0l0,0c0,0,0,0,0,0l0,0v0.4c0,0.2-0.1,0.3-0.3,0.3l0,0
			C-19.2-121.4-19.4-121.5-19.4-121.7L-19.4-121.7L-19.4-121.7z M-18.2-121.5C-18.3-121.5-18.3-121.5-18.2-121.5L-18.2-121.5
			C-18.2-121.5-18.2-121.5-18.2-121.5L-18.2-121.5c0.1,0,0.2,0.1,0.3,0.1l0,0c0.1,0,0.1,0,0.2,0l0,0c0,0,0.1-0.1,0.1-0.1l0,0
			c0,0,0-0.1-0.1-0.1l0,0c0,0-0.1,0-0.2-0.1l0,0h0c-0.1,0-0.1,0-0.2-0.1l0,0c0,0-0.1-0.1-0.1-0.1l0,0c0-0.1,0-0.1,0.1-0.1l0,0
			c0,0,0.1-0.1,0.2-0.1l0,0c0.1,0,0.2,0,0.2,0.1l0,0c0,0,0,0,0,0l0,0c0,0,0,0,0,0l0,0c-0.1,0-0.1-0.1-0.2-0.1l0,0
			c-0.1,0-0.1,0-0.1,0l0,0c0,0-0.1,0.1-0.1,0.1l0,0c0,0,0,0.1,0.1,0.1l0,0c0,0,0.1,0,0.2,0.1l0,0h0c0.1,0,0.1,0,0.2,0.1l0,0
			c0,0,0.1,0.1,0.1,0.1l0,0c0,0.1,0,0.1-0.1,0.1l0,0c0,0-0.1,0.1-0.2,0.1l0,0C-18.1-121.4-18.2-121.4-18.2-121.5L-18.2-121.5
			L-18.2-121.5z M-17.2-121.4v-0.3c0-0.1-0.1-0.1-0.2-0.1c-0.1,0-0.2,0.1-0.2,0.1v0.3v0c0,0,0,0,0,0c0,0,0,0,0,0c0,0,0,0,0,0
			c0,0,0,0,0,0h0h0c0,0,0,0,0,0c0,0,0,0,0,0s0,0,0,0v-0.3v0v-0.4c0,0,0,0,0,0c0,0,0,0,0,0v0.3c0,0,0.1-0.1,0.2-0.1
			c0.1,0,0.2,0.1,0.2,0.2L-17.2-121.4C-17.1-121.4-17.1-121.4-17.2-121.4C-17.1-121.4-17.2-121.4-17.2-121.4L-17.2-121.4z
			 M-16.5-121.9C-16.5-121.9-16.5-121.9-16.5-121.9l0,0.5c0,0,0,0,0,0s0,0,0,0v-0.1c0,0.1-0.1,0.1-0.2,0.1c-0.1,0-0.2-0.1-0.2-0.3
			s0.1-0.3,0.2-0.3C-16.6-121.9-16.6-121.8-16.5-121.9L-16.5-121.9C-16.5-121.9-16.5-121.9-16.5-121.9L-16.5-121.9z M-16.7-121.4
			c0.1,0,0.2-0.1,0.2-0.2c0-0.1-0.1-0.2-0.2-0.2c-0.1,0-0.2,0.1-0.2,0.2C-16.9-121.5-16.8-121.4-16.7-121.4z M-16.3-121.4v-0.5
			c0,0,0,0,0,0c0,0,0,0,0,0v0.1c0,0,0,0,0,0c0-0.1,0.1-0.1,0.2-0.1c0,0,0,0,0,0c0,0,0,0,0,0c-0.1,0-0.1,0-0.1,0.1
			c0,0-0.1,0.1-0.1,0.1c0,0,0,0,0,0L-16.3-121.4C-16.2-121.4-16.2-121.4-16.3-121.4C-16.2-121.4-16.3-121.4-16.3-121.4L-16.3-121.4z
			 M-15.6-121.4c-0.1,0-0.2-0.1-0.2-0.3c0-0.1,0.1-0.3,0.2-0.3c0.1,0,0.2,0.1,0.2,0.2v0v0c0,0,0,0,0,0h-0.4
			C-15.8-121.5-15.7-121.4-15.6-121.4c0.1,0,0.1-0.1,0.2-0.1c0,0,0,0,0,0c0,0,0,0,0,0C-15.4-121.4-15.5-121.4-15.6-121.4
			L-15.6-121.4z M-15.6-121.8c-0.1,0-0.2,0.1-0.2,0.2h0.4C-15.4-121.8-15.5-121.8-15.6-121.8z"/>
	</g>
</g>
</svg>
